<svg width="108" height="46" viewBox="0 0 108 46" fill="none" xmlns="http://www.w3.org/2000/svg">
<g clip-path="url(#clip0_1168_1326)">
<path d="M39.4827 16.098V11.6721C30.166 3.76855 15.6931 -0.0251465 5.97178 -0.0251465C2.05671 6.9304 0 14.7774 0 22.7591C0 30.7408 2.05671 38.5878 5.97178 45.5434C15.6994 45.5434 30.1724 41.7497 39.4827 33.8462V29.4202C31.611 30.435 23.655 30.6257 15.7437 29.9893C23.8295 29.0153 31.7878 27.1786 39.4827 24.5105V21.0551C31.7896 18.371 23.8313 16.5183 15.7437 15.529C23.655 14.8957 31.6108 15.0864 39.4827 16.098V16.098Z" fill="#FC1224"/>
<path d="M68.5107 29.4675V33.8934C77.8274 41.7969 92.2972 45.5906 102.022 45.5906C105.939 38.6364 107.997 30.7896 107.997 22.8079C107.997 14.8263 105.939 6.97955 102.022 0.0252686C92.294 0.0252686 77.8242 3.81895 68.5107 11.7225V16.1484C76.3827 15.1368 84.3384 14.9461 92.2498 15.5794C84.1622 16.5688 76.2038 18.4214 68.5107 21.1055V24.5104C76.2038 27.1945 84.1622 29.0471 92.2498 30.0365C84.3385 30.673 76.3824 30.4823 68.5107 29.4675V29.4675Z" fill="#FC1224"/>
<path d="M65.0893 33.8839C57.3059 37.6207 50.6733 37.6207 42.8867 33.8839V11.6813C50.6701 7.9477 57.3059 7.9477 65.0893 11.6813V33.8839Z" fill="#FC1224"/>
</g>
<defs>
<clipPath id="clip0_1168_1326">
<rect width="108" height="45.5685" fill="white"/>
</clipPath>
</defs>
</svg>
