<svg width="60" height="49" viewBox="0 0 60 49" fill="none" xmlns="http://www.w3.org/2000/svg">
<path d="M13.272 48.19C9.48 48.19 6.32 46.9787 3.792 44.556C1.264 42.1333 0 39.0787 0 35.392C0 33.3907 0.316 31.3367 0.948 29.23C1.68533 27.1233 2.89667 24.2793 4.582 20.698L14.694 0H27.492L20.856 24.648C24.7533 27.3867 26.702 31.0207 26.702 35.55C26.702 39.1313 25.3853 42.1333 22.752 44.556C20.224 46.9787 17.064 48.19 13.272 48.19ZM45.662 48.19C41.87 48.19 38.71 46.9787 36.182 44.556C33.654 42.1333 32.39 39.0787 32.39 35.392C32.39 33.3907 32.706 31.3367 33.338 29.23C34.0753 27.1233 35.2867 24.2793 36.972 20.698L47.084 0H59.882L53.246 24.648C57.1433 27.3867 59.092 31.0207 59.092 35.55C59.092 39.1313 57.7753 42.1333 55.142 44.556C52.614 46.9787 49.454 48.19 45.662 48.19Z" fill="white"/>
</svg>
